<svg width="54" height="54" viewBox="0 0 54 54" fill="none" xmlns="http://www.w3.org/2000/svg">
<rect x="0.5" y="0.5" width="53" height="53" rx="26.5" fill="#FAFAFA" stroke="#F5F5F5"/>
<path d="M33.86 27.2126C33.8335 24.3042 36.2706 22.9079 36.3808 22.8399C35.0094 20.8628 32.8751 20.592 32.1137 20.5601C30.2984 20.3791 28.5698 21.6131 27.6497 21.6131C26.7295 21.6131 25.3067 20.5862 23.8015 20.6151C21.8201 20.6441 19.996 21.7492 18.9759 23.496C16.9195 27.0112 18.4511 32.2211 20.4531 35.0745C21.4335 36.4693 22.6006 38.0408 24.1352 37.9828C25.6139 37.9249 26.1724 37.0414 27.9569 37.0414C29.7413 37.0414 30.244 37.9828 31.8065 37.9553C33.3955 37.9249 34.4038 36.5301 35.3769 35.1309C36.4999 33.5116 36.9644 31.9445 36.9908 31.8619C36.9555 31.8474 33.8923 30.6902 33.86 27.2126" fill="#181818"/>
<path d="M30.9259 18.6702C31.7402 17.6983 32.2899 16.347 32.1385 15C30.9655 15.0464 29.5456 15.7706 28.7034 16.7424C27.9493 17.6014 27.2879 18.9773 27.4671 20.2968C28.7754 20.3968 30.1115 19.6406 30.9259 18.6702" fill="#181818"/>
</svg>
