<svg width="24" height="24" viewBox="0 0 24 24" fill="none" xmlns="http://www.w3.org/2000/svg">
<path fill-rule="evenodd" clip-rule="evenodd" d="M12 22C17.5228 22 22 17.5228 22 12C22 6.47715 17.5228 2 12 2C6.47715 2 2 6.47715 2 12C2 17.5228 6.47715 22 12 22ZM16.7782 7.2165C17.0711 7.50939 17.0711 7.98426 16.7782 8.27716L13.0581 11.9972L16.7782 15.7173C17.0711 16.0102 17.0711 16.4851 16.7782 16.778C16.4853 17.0709 16.0105 17.0709 15.7176 16.778L11.9975 13.0579L8.2774 16.778C7.98451 17.0709 7.50963 17.0709 7.21674 16.778C6.92385 16.4851 6.92385 16.0102 7.21674 15.7173L10.9368 11.9972L7.21674 8.27716C6.92385 7.98426 6.92385 7.50939 7.21674 7.2165C7.50963 6.9236 7.98451 6.9236 8.2774 7.2165L11.9975 10.9366L15.7176 7.2165C16.0105 6.9236 16.4853 6.9236 16.7782 7.2165Z" fill="#999999"/>
</svg>
