<svg width="54" height="54" viewBox="0 0 54 54" fill="none" xmlns="http://www.w3.org/2000/svg">
<rect x="0.5" y="0.5" width="53" height="53" rx="26.5" fill="#FAFAFA" stroke="#F5F5F5"/>
<path d="M27.566 17H28.4088C28.5399 17.0142 28.6706 17.0356 28.802 17.0416C30.1668 17.1014 31.5157 17.3597 32.8062 17.8087C35.0744 18.6034 37.0495 19.8394 38.4439 21.8377C40.3342 24.5472 40.5231 27.3954 38.8964 30.2981C37.8796 32.1125 36.3317 33.3822 34.4976 34.3094C31.8263 35.6613 28.9923 36.0391 26.0383 35.7054C25.9116 35.6982 25.786 35.733 25.681 35.8046C24.5445 36.5767 23.4228 37.3668 22.2838 38.1328C21.832 38.4366 21.3539 38.702 20.8748 38.9621C20.7725 39.0172 20.5811 39.0119 20.4905 38.9485C20.4223 38.9012 20.4113 38.7059 20.4408 38.5928C20.6766 37.6952 20.9259 36.8015 21.176 35.9078C21.3181 35.4001 21.4686 34.895 21.6171 34.383C20.7143 33.9294 19.8867 33.4043 19.1394 32.7579C17.762 31.5664 16.7373 30.1398 16.2625 28.3596C16.1428 27.9106 16.0849 27.4452 16 26.9874V25.8151C16.0387 25.5782 16.071 25.3402 16.1165 25.1036C16.5072 23.0156 17.6153 21.3581 19.2161 20.0162C21.1969 18.3544 23.5138 17.4746 26.0561 17.1412C26.5569 17.0765 27.0641 17.0466 27.566 17ZM33.93 27.278C34.0259 27.3865 34.1278 27.4847 34.2088 27.5982C34.4816 27.9782 34.7352 28.3727 35.0186 28.7445C35.2317 29.022 35.4487 29.3055 35.7133 29.5272C36.0898 29.8438 36.6066 29.6428 36.7505 29.1714C36.8275 28.9178 36.7441 28.7089 36.5977 28.5172C36.0841 27.8391 35.5709 27.161 35.0499 26.4893C34.9543 26.3662 34.9486 26.2758 35.0602 26.172C35.3965 25.8582 35.735 25.5472 36.065 25.226C36.2372 25.0581 36.4102 24.8848 36.5484 24.6895C36.7448 24.4124 36.7018 24.1512 36.4617 23.9107C36.2216 23.6702 35.9595 23.6226 35.6839 23.82C35.464 23.9773 35.2669 24.1708 35.0765 24.3647C34.694 24.7539 34.3246 25.1563 33.9456 25.5494C33.8746 25.6223 33.7862 25.6774 33.6693 25.7692C33.6693 25.2573 33.6732 24.8051 33.6693 24.3533C33.664 23.9075 33.3745 23.6062 32.9696 23.6129C32.575 23.6197 32.2948 23.9221 32.2948 24.354C32.2926 25.885 32.2926 27.4157 32.2948 28.9462C32.2948 29.377 32.5747 29.6834 32.9675 29.6933C33.3603 29.7033 33.6643 29.3952 33.6714 28.9526C33.6775 28.5613 33.6846 28.1699 33.6682 27.7814C33.6572 27.5634 33.7158 27.4029 33.93 27.278ZM22.7618 29.0924C22.7842 29.4126 22.9206 29.5966 23.204 29.6617C23.6302 29.7588 23.9318 29.6574 24.0682 29.3493C24.1659 29.1291 24.2387 28.8975 24.3168 28.6687C24.3594 28.5435 24.4234 28.4866 24.5697 28.4887C25.1548 28.4984 25.7398 28.4984 26.3246 28.4887C26.4802 28.4862 26.548 28.5485 26.5928 28.6837C26.6637 28.9147 26.7467 29.1419 26.8414 29.3642C26.9778 29.6656 27.3571 29.7748 27.7599 29.6488C28.0266 29.5663 28.1545 29.3546 28.0938 29.0135C28.0439 28.7217 27.9672 28.4351 27.8647 28.1575C27.388 26.9048 26.8922 25.6597 26.4141 24.4067C26.2316 23.9278 25.8949 23.6258 25.4772 23.6126C25.0595 23.5994 24.6887 23.8808 24.5068 24.3576C23.9734 25.7479 23.4425 27.1394 22.9142 28.5321C22.845 28.7121 22.8116 28.9057 22.7618 29.0931V29.0924ZM20.6731 24.9595V25.2441C20.6731 26.4783 20.6649 27.7124 20.6819 28.9441C20.6885 29.1426 20.7575 29.334 20.8791 29.4909C21.068 29.7204 21.3507 29.7566 21.6285 29.6417C21.9062 29.5268 22.0487 29.3091 22.0483 29.0014C22.0469 27.7519 22.0469 26.5023 22.0483 25.2527V24.9585H22.3324C22.6052 24.9585 22.8791 24.9698 23.1493 24.9524C23.5344 24.9279 23.8192 24.6191 23.8089 24.264C23.8047 24.0896 23.7326 23.9237 23.6078 23.8019C23.4831 23.6801 23.3157 23.612 23.1415 23.6122C21.9486 23.6056 20.7556 23.6056 19.5624 23.6122C19.4246 23.6132 19.2907 23.6582 19.1801 23.7406C19.0696 23.8231 18.9883 23.9388 18.948 24.0708C18.8009 24.5191 19.1209 24.9417 19.6278 24.956C19.9641 24.9677 20.2991 24.9602 20.6731 24.9602V24.9595ZM29.8941 28.3421V28.0262C29.8941 26.8074 29.8966 25.5885 29.8941 24.3697C29.8941 23.9072 29.5826 23.5959 29.1568 23.6112C28.743 23.6261 28.482 23.9538 28.482 24.4038C28.4876 25.4583 28.4731 26.5124 28.4745 27.5669C28.4745 28.065 28.4702 28.5666 28.51 29.0629C28.5384 29.4091 28.7316 29.5855 29.0595 29.5923C29.8391 29.6079 30.6194 29.598 31.3994 29.5958C31.4619 29.5933 31.5237 29.5813 31.5826 29.5603C31.7018 29.521 31.8066 29.4471 31.8837 29.348C31.9609 29.249 32.0069 29.1292 32.016 29.0038C32.0247 28.8781 31.9937 28.7527 31.9272 28.6456C31.8608 28.5385 31.7623 28.4551 31.6459 28.4072C31.529 28.3653 31.4056 28.3445 31.2815 28.3457C30.829 28.3389 30.3786 28.3428 29.8941 28.3428V28.3421Z" fill="#3F2121"/>
<path d="M25 27L25.4995 26C25.6757 26.3519 25.8352 26.6705 26 27H25Z" fill="#686868"/>
</svg>
