<svg width="80" height="24" viewBox="0 0 80 24" fill="none" xmlns="http://www.w3.org/2000/svg">
<path d="M48.2326 6.67407H45.769L41.25 22.4431H46.1725L49.9699 9.15192C50.3734 7.77534 49.5949 6.67407 48.2326 6.67407Z" fill="#D1EF1A"/>
<path d="M2.38677 11.9999H2.05924C0.549744 11.9999 -0.314168 10.78 0.113047 9.27526L1.20481 5.47778H4.26178L2.38677 11.9999Z" fill="#D1EF1A"/>
<path d="M11.7909 5.45412H9.93494L8.05993 12H9.9112C11.1169 12 11.5061 12.9114 10.984 14.7294C10.4618 16.5475 9.55993 17.4541 8.34948 17.4541C7.13904 17.4541 6.75456 16.5475 7.27671 14.7294L10.7182 2.72943C11.1501 1.22468 10.2767 0 8.77196 0H4.97449L0.749812 14.7152C-1.0255 20.8861 1.3669 23.9858 6.49348 23.9858C11.6201 23.9858 15.7783 20.8956 17.5489 14.7152C19.3194 8.53481 16.9175 5.45412 11.7909 5.45412Z" fill="#D1EF1A"/>
<path d="M17.5285 14.7294C19.2991 8.55853 16.9162 5.4541 11.7896 5.4541H9.9336L8.05859 12H9.90986C11.1156 12 11.5048 12.9114 10.9826 14.7294" fill="#D1EF1A"/>
<path d="M49.825 1.08203C49.1088 1.12207 48.4218 1.37924 47.8554 1.81934C47.289 2.25943 46.87 2.86157 46.6542 3.54564C46.2649 4.90798 47.0529 6.00925 48.4105 6.00925C49.1269 5.96987 49.8142 5.71293 50.3808 5.27275C50.9473 4.83256 51.3662 4.23006 51.5814 3.54564C51.9659 2.20229 51.1826 1.08203 49.825 1.08203Z" fill="#D1EF1A"/>
<path d="M61.7821 6.65967L56.8359 16.0014L57.1587 6.65967H52.3359L52.4688 22.4239H57.3723L66.7331 6.65967H61.7821Z" fill="#D1EF1A"/>
<path d="M78.1767 10.1249L79.1688 6.65967H73.2305H69.0201H68.3033L63.7891 22.4239H64.5343H68.7115H74.7305L75.7131 18.9587H69.7036L70.4726 16.272H76.3587L77.346 12.8116H71.4694L72.2384 10.1249H78.1767Z" fill="#D1EF1A"/>
<path d="M31.4464 17.516L34.9875 5.12197L35.2961 4.04918L35.4385 3.5745C35.8182 2.2264 35.035 1.12988 33.6822 1.12988H31.209L25.1094 22.4432H39.1125L40.5366 17.5255L31.4464 17.516Z" fill="#D1EF1A"/>
</svg>
