<svg width="54" height="54" viewBox="0 0 54 54" fill="none" xmlns="http://www.w3.org/2000/svg">
<rect x="0.5" y="0.5" width="53" height="53" rx="26.5" fill="#FAFAFA" stroke="#F5F5F5"/>
<path d="M24.3409 27.5594C24.331 27.6981 24.3125 27.8464 24.3125 27.9893C24.3125 30.5102 24.3039 33.0297 24.321 35.5506C24.321 35.9097 24.2129 35.9902 23.8614 35.9874C22.0584 35.9707 20.2555 35.9791 18.4539 35.9791H18.027C18.0171 35.8404 18 35.7128 18 35.5908C18 30.1931 18 24.7944 18 19.3949C18 19.0912 18.0854 18.9997 18.3999 19.0011C20.2621 19.0131 22.1244 19.0131 23.9866 19.0011C24.1029 18.9943 24.2188 19.0194 24.3211 19.0736C24.4235 19.1278 24.5083 19.2088 24.5658 19.3075C26.4878 22.0568 28.4145 24.8023 30.346 27.5442C30.4171 27.6497 30.523 27.7285 30.6463 27.7674C30.6577 27.6287 30.6804 27.4901 30.6804 27.3514C30.6804 24.727 30.6804 22.1025 30.6804 19.4781C30.6804 19.0136 30.6804 19.0122 31.1415 19.0122C32.9444 19.0122 34.7474 19.0191 36.5489 19.0122C36.8819 19.0122 37 19.094 37 19.4365C36.9896 24.812 36.9896 30.1875 37 35.5631C37 35.8889 36.9175 36.0013 36.5731 35.9985C34.7118 35.9818 32.8491 35.9846 30.9878 35.9985C30.8787 36.0062 30.7695 35.9844 30.6723 35.9355C30.5751 35.8865 30.4937 35.8124 30.4371 35.7212C28.5398 33.1115 26.6381 30.5042 24.7323 27.8991C24.6454 27.7799 24.5501 27.6662 24.459 27.5497L24.3409 27.5594Z" fill="#2DB400"/>
</svg>
