<svg width="24" height="24" viewBox="0 0 24 24" fill="none" xmlns="http://www.w3.org/2000/svg">
<path fill-rule="evenodd" clip-rule="evenodd" d="M3.5 10.1562C3.5 6.4801 6.4801 3.5 10.1562 3.5C13.8324 3.5 16.8125 6.4801 16.8125 10.1562C16.8125 13.8324 13.8324 16.8125 10.1562 16.8125C6.4801 16.8125 3.5 13.8324 3.5 10.1562ZM10.1562 2C5.65168 2 2 5.65168 2 10.1562C2 14.6608 5.65168 18.3125 10.1562 18.3125C12.0551 18.3125 13.8024 17.6636 15.1886 16.5754L20.2232 21.5788C20.517 21.8708 20.9919 21.8693 21.2838 21.5755C21.5758 21.2817 21.5743 20.8069 21.2805 20.5149L16.2793 15.5446C17.5448 14.1077 18.3125 12.2216 18.3125 10.1562C18.3125 5.65168 14.6608 2 10.1562 2Z" fill="#F5F5F5"/>
</svg>
